REM DIRINDEX 1\4,1\2\5,1\2\6,1\2\7,1\3\8,1\3\9,1\3\10,1\3\11
REM DIRNAME cjc108,folder01,folder02,folder03,folder04,folder05,folder06,folder07,folder08,folder09,folder10
TITLE ""
FILE "t_k_524-535.mp3" MP3
  TRACK 01 AUDIO
    TITLE "5:cjc108_1577"
    INDEX 01 00:00:00
  TRACK 02 AUDIO
    TITLE "0:"
    INDEX 01 00:01:13
  TRACK 03 AUDIO
    TITLE "6:cjc108_1578"
    INDEX 01 00:01:24
  TRACK 04 AUDIO
    TITLE "0:"
    INDEX 01 00:03:49
  TRACK 05 AUDIO
    TITLE "7:cjc108_1579"
    INDEX 01 00:03:63
  TRACK 06 AUDIO
    TITLE "0:"
    INDEX 01 00:08:19
  TRACK 07 AUDIO
    TITLE "5:cjc108_1580"
    INDEX 01 00:09:14
  TRACK 08 AUDIO
    TITLE "0:"
    INDEX 01 00:10:25
  TRACK 09 AUDIO
    TITLE "6:cjc108_1581"
    INDEX 01 00:10:47
  TRACK 10 AUDIO
    TITLE "0:"
    INDEX 01 00:13:28
  TRACK 11 AUDIO
    TITLE "7:cjc108_1582"
    INDEX 01 00:13:47
  TRACK 12 AUDIO
    TITLE "0:"
    INDEX 01 00:19:01
  TRACK 13 AUDIO
    TITLE "5:cjc108_1583"
    INDEX 01 00:19:73
  TRACK 14 AUDIO
    TITLE "0:"
    INDEX 01 00:20:73
  TRACK 15 AUDIO
    TITLE "6:cjc108_1584"
    INDEX 01 00:21:29
  TRACK 16 AUDIO
    TITLE "0:"
    INDEX 01 00:23:24
  TRACK 17 AUDIO
    TITLE "7:cjc108_1585"
    INDEX 01 00:23:44
  TRACK 18 AUDIO
    TITLE "0:"
    INDEX 01 00:29:17
  TRACK 19 AUDIO
    TITLE "5:cjc108_1586"
    INDEX 01 00:30:14
  TRACK 20 AUDIO
    TITLE "0:"
    INDEX 01 00:31:37
  TRACK 21 AUDIO
    TITLE "6:cjc108_1587"
    INDEX 01 00:31:71
  TRACK 22 AUDIO
    TITLE "0:"
    INDEX 01 00:32:66
  TRACK 23 AUDIO
    TITLE "7:cjc108_1588"
    INDEX 01 00:33:15
  TRACK 24 AUDIO
    TITLE "0:"
    INDEX 01 00:38:31
  TRACK 25 AUDIO
    TITLE "5:cjc108_1589"
    INDEX 01 00:39:13
  TRACK 26 AUDIO
    TITLE "0:"
    INDEX 01 00:40:11
  TRACK 27 AUDIO
    TITLE "6:cjc108_1590"
    INDEX 01 00:40:30
  TRACK 28 AUDIO
    TITLE "0:"
    INDEX 01 00:41:45
  TRACK 29 AUDIO
    TITLE "7:cjc108_1591"
    INDEX 01 00:41:63
  TRACK 30 AUDIO
    TITLE "0:"
    INDEX 01 00:46:15
  TRACK 31 AUDIO
    TITLE "5:cjc108_1592"
    INDEX 01 00:46:72
  TRACK 32 AUDIO
    TITLE "0:"
    INDEX 01 00:47:68
  TRACK 33 AUDIO
    TITLE "6:cjc108_1593"
    INDEX 01 00:48:14
  TRACK 34 AUDIO
    TITLE "0:"
    INDEX 01 00:50:48
  TRACK 35 AUDIO
    TITLE "7:cjc108_1594"
    INDEX 01 00:50:70
  TRACK 36 AUDIO
    TITLE "0:"
    INDEX 01 00:54:54
  TRACK 37 AUDIO
    TITLE "5:cjc108_1595"
    INDEX 01 00:55:32
  TRACK 38 AUDIO
    TITLE "0:"
    INDEX 01 00:56:37
  TRACK 39 AUDIO
    TITLE "6:cjc108_1596"
    INDEX 01 00:56:59
  TRACK 40 AUDIO
    TITLE "0:"
    INDEX 01 00:58:07
  TRACK 41 AUDIO
    TITLE "7:cjc108_1597"
    INDEX 01 00:58:22
  TRACK 42 AUDIO
    TITLE "0:"
    INDEX 01 01:03:14
  TRACK 43 AUDIO
    TITLE "5:cjc108_1598"
    INDEX 01 01:03:71
  TRACK 44 AUDIO
    TITLE "0:"
    INDEX 01 01:04:70
  TRACK 45 AUDIO
    TITLE "6:cjc108_1599"
    INDEX 01 01:05:15
  TRACK 46 AUDIO
    TITLE "0:"
    INDEX 01 01:07:49
  TRACK 47 AUDIO
    TITLE "7:cjc108_1600"
    INDEX 01 01:07:66
  TRACK 48 AUDIO
    TITLE "0:"
    INDEX 01 01:12:42
  TRACK 49 AUDIO
    TITLE "5:cjc108_1601"
    INDEX 01 01:13:26
  TRACK 50 AUDIO
    TITLE "0:"
    INDEX 01 01:14:47
  TRACK 51 AUDIO
    TITLE "6:cjc108_1602"
    INDEX 01 01:14:65
  TRACK 52 AUDIO
    TITLE "0:"
    INDEX 01 01:15:70
  TRACK 53 AUDIO
    TITLE "7:cjc108_1603"
    INDEX 01 01:16:11
  TRACK 54 AUDIO
    TITLE "0:"
    INDEX 01 01:22:66
  TRACK 55 AUDIO
    TITLE "5:cjc108_1604"
    INDEX 01 01:23:58
  TRACK 56 AUDIO
    TITLE "0:"
    INDEX 01 01:24:69
  TRACK 57 AUDIO
    TITLE "6:cjc108_1605"
    INDEX 01 01:25:09
  TRACK 58 AUDIO
    TITLE "0:"
    INDEX 01 01:26:56
  TRACK 59 AUDIO
    TITLE "7:cjc108_1606"
    INDEX 01 01:26:68
  TRACK 60 AUDIO
    TITLE "0:"
    INDEX 01 01:32:19
  TRACK 61 AUDIO
    TITLE "5:cjc108_1607"
    INDEX 01 01:33:07
  TRACK 62 AUDIO
    TITLE "0:"
    INDEX 01 01:34:18
  TRACK 63 AUDIO
    TITLE "6:cjc108_1608"
    INDEX 01 01:34:61
  TRACK 64 AUDIO
    TITLE "0:"
    INDEX 01 01:36:03
  TRACK 65 AUDIO
    TITLE "7:cjc108_1609"
    INDEX 01 01:36:25
  TRACK 66 AUDIO
    TITLE "0:"
    INDEX 01 01:41:50
  TRACK 67 AUDIO
    TITLE "5:cjc108_1610"
    INDEX 01 01:42:47
  TRACK 68 AUDIO
    TITLE "0:"
    INDEX 01 01:43:58
  TRACK 69 AUDIO
    TITLE "6:cjc108_1611"
    INDEX 01 01:44:07
  TRACK 70 AUDIO
    TITLE "0:"
    INDEX 01 01:45:34
  TRACK 71 AUDIO
    TITLE "7:cjc108_1612"
    INDEX 01 01:45:49
  TRACK 72 AUDIO
    TITLE "0:"
    INDEX 01 01:49:45
